<svg width="500" height="500" viewBox="0 0 500 500" fill="none" xmlns="http://www.w3.org/2000/svg">
<path d="M168.86 210.59C169.94 204.47 172.28 198.98 175.88 194.12C179.54 189.2 183.98 185.36 189.2 182.6C194.48 179.84 200 178.46 205.76 178.46C212.6 178.46 218.27 180.11 222.77 183.41C227.33 186.71 230.27 191.39 231.59 197.45H221.78C220.7 193.79 218.69 190.97 215.75 188.99C212.81 186.95 209.06 185.93 204.5 185.93C200.12 185.93 196.01 186.95 192.17 188.99C188.39 190.97 185.18 193.85 182.54 197.63C179.9 201.35 178.13 205.67 177.23 210.59C176.93 212.15 176.78 213.95 176.78 215.99C176.78 221.87 178.49 226.55 181.91 230.03C185.39 233.45 190.01 235.16 195.77 235.16C200.33 235.16 204.44 234.17 208.1 232.19C211.76 230.21 214.76 227.39 217.1 223.73H226.91C223.49 229.73 218.93 234.38 213.23 237.68C207.59 240.92 201.35 242.54 194.51 242.54C189.41 242.54 184.88 241.49 180.92 239.39C176.96 237.23 173.87 234.23 171.65 230.39C169.43 226.49 168.32 222.02 168.32 216.98C168.32 214.88 168.5 212.75 168.86 210.59Z" fill="#D4C6C6"/>
<path d="M257.881 220.08L254.001 242H250.361L250.921 238.8C250.041 239.92 248.921 240.787 247.561 241.4C246.201 242.013 244.788 242.32 243.321 242.32C241.028 242.32 239.188 241.707 237.801 240.48C236.441 239.227 235.761 237.44 235.761 235.12C235.761 234.533 235.828 233.8 235.961 232.92L238.241 220.08H241.841L239.681 232.44C239.575 233 239.521 233.587 239.521 234.2C239.521 235.827 239.961 237.067 240.841 237.92C241.748 238.747 243.001 239.16 244.601 239.16C246.521 239.16 248.148 238.56 249.481 237.36C250.841 236.16 251.708 234.413 252.081 232.12V232.24L254.241 220.08H257.881ZM266.947 224.16C267.934 222.853 269.214 221.787 270.787 220.96C272.361 220.133 274.067 219.72 275.907 219.72C278.521 219.72 280.614 220.507 282.187 222.08C283.787 223.653 284.587 225.787 284.587 228.48C284.587 229.253 284.507 230.08 284.347 230.96C283.947 233.173 283.134 235.147 281.907 236.88C280.707 238.613 279.227 239.96 277.467 240.92C275.734 241.88 273.894 242.36 271.947 242.36C270.054 242.36 268.467 241.947 267.187 241.12C265.907 240.293 265.014 239.24 264.507 237.96L263.787 242H260.147L265.387 212.4H269.027L266.947 224.16ZM280.627 230.96C280.734 230.4 280.787 229.787 280.787 229.12C280.787 227.173 280.214 225.653 279.067 224.56C277.921 223.44 276.441 222.88 274.627 222.88C273.294 222.88 272.001 223.213 270.747 223.88C269.494 224.52 268.414 225.467 267.507 226.72C266.627 227.947 266.041 229.373 265.747 231C265.641 231.56 265.587 232.173 265.587 232.84C265.587 234.787 266.161 236.333 267.307 237.48C268.481 238.6 269.961 239.16 271.747 239.16C273.107 239.16 274.401 238.84 275.627 238.2C276.881 237.533 277.947 236.587 278.827 235.36C279.734 234.107 280.334 232.64 280.627 230.96ZM299.899 242.28C297.579 242.28 295.539 241.8 293.779 240.84C292.019 239.853 290.645 238.48 289.659 236.72C288.699 234.96 288.219 232.947 288.219 230.68C288.219 227.533 288.925 224.68 290.339 222.12C291.779 219.533 293.752 217.507 296.259 216.04C298.765 214.547 301.565 213.8 304.659 213.8C307.005 213.8 309.059 214.293 310.819 215.28C312.605 216.24 313.979 217.6 314.939 219.36C315.899 221.093 316.379 223.093 316.379 225.36C316.379 228.533 315.659 231.413 314.219 234C312.805 236.56 310.845 238.587 308.339 240.08C305.832 241.547 303.019 242.28 299.899 242.28ZM300.419 239C302.765 239 304.859 238.4 306.699 237.2C308.565 235.973 310.019 234.333 311.059 232.28C312.099 230.227 312.619 228 312.619 225.6C312.619 222.96 311.859 220.88 310.339 219.36C308.819 217.84 306.752 217.08 304.139 217.08C301.792 217.08 299.685 217.693 297.819 218.92C295.979 220.12 294.539 221.747 293.499 223.8C292.485 225.827 291.979 228.04 291.979 230.44C291.979 233.08 292.725 235.173 294.219 236.72C295.739 238.24 297.805 239 300.419 239Z" fill="#C4BFBF"/>
<path d="M336.064 242.49C331.537 242.49 327.851 241.417 325.004 239.27C322.204 237.077 320.804 234.16 320.804 230.52C320.804 229.82 320.827 229.307 320.874 228.98H327.174C327.034 231.267 327.734 233.227 329.274 234.86C330.814 236.493 333.171 237.31 336.344 237.31C339.517 237.31 342.037 236.587 343.904 235.14C345.771 233.693 346.704 231.663 346.704 229.05C346.704 227.463 346.237 226.133 345.304 225.06C344.417 223.94 343.297 223.03 341.944 222.33C340.637 221.583 338.841 220.767 336.554 219.88C333.754 218.76 331.491 217.71 329.764 216.73C328.084 215.75 326.661 214.42 325.494 212.74C324.327 211.06 323.791 208.937 323.884 206.37C323.884 203.663 324.607 201.26 326.054 199.16C327.501 197.06 329.484 195.45 332.004 194.33C334.571 193.163 337.487 192.58 340.754 192.58C343.927 192.58 346.657 193.117 348.944 194.19C351.277 195.263 353.027 196.757 354.194 198.67C355.361 200.583 355.874 202.73 355.734 205.11H349.084C349.177 203.897 348.897 202.73 348.244 201.61C347.637 200.49 346.657 199.58 345.304 198.88C343.997 198.18 342.364 197.83 340.404 197.83C337.371 197.83 334.921 198.553 333.054 200C331.234 201.4 330.324 203.337 330.324 205.81C330.324 207.257 330.744 208.517 331.584 209.59C332.471 210.617 333.567 211.503 334.874 212.25C336.181 212.95 337.977 213.79 340.264 214.77C343.017 215.937 345.257 217.033 346.984 218.06C348.757 219.04 350.251 220.37 351.464 222.05C352.677 223.73 353.284 225.83 353.284 228.35C353.284 231.057 352.584 233.483 351.184 235.63C349.784 237.73 347.777 239.41 345.164 240.67C342.551 241.883 339.517 242.49 336.064 242.49Z" fill="#C6BCBC"/>
<path d="M359.926 230.96C360.326 228.72 361.126 226.76 362.326 225.08C363.553 223.373 365.033 222.053 366.766 221.12C368.526 220.187 370.393 219.72 372.366 219.72C374.286 219.72 375.873 220.133 377.126 220.96C378.38 221.787 379.246 222.827 379.726 224.08L380.446 220.08H384.126L380.246 242H376.566L377.326 237.92C376.366 239.2 375.1 240.267 373.526 241.12C371.953 241.947 370.22 242.36 368.326 242.36C366.62 242.36 365.113 242 363.806 241.28C362.5 240.533 361.486 239.48 360.766 238.12C360.046 236.76 359.686 235.187 359.686 233.4C359.686 232.6 359.766 231.787 359.926 230.96ZM378.526 231C378.633 230.44 378.686 229.84 378.686 229.2C378.686 227.253 378.1 225.72 376.926 224.6C375.78 223.453 374.313 222.88 372.526 222.88C371.166 222.88 369.86 223.2 368.606 223.84C367.38 224.48 366.326 225.413 365.446 226.64C364.566 227.867 363.98 229.307 363.686 230.96C363.58 231.52 363.526 232.133 363.526 232.8C363.526 234.773 364.1 236.333 365.246 237.48C366.393 238.6 367.86 239.16 369.646 239.16C371.006 239.16 372.3 238.84 373.526 238.2C374.78 237.533 375.846 236.587 376.726 235.36C377.633 234.107 378.233 232.653 378.526 231ZM393.197 224.12C394.157 222.867 395.424 221.827 396.997 221C398.571 220.147 400.291 219.72 402.157 219.72C403.864 219.72 405.371 220.08 406.677 220.8C408.011 221.493 409.037 222.507 409.757 223.84C410.477 225.147 410.837 226.693 410.837 228.48C410.837 229.253 410.757 230.08 410.597 230.96C410.197 233.173 409.384 235.147 408.157 236.88C406.957 238.613 405.477 239.96 403.717 240.92C401.984 241.88 400.144 242.36 398.197 242.36C396.331 242.36 394.757 241.947 393.477 241.12C392.224 240.267 391.317 239.213 390.757 237.96L388.237 252.4H384.597L390.277 220.08H393.917L393.197 224.12ZM406.877 230.96C406.984 230.4 407.037 229.787 407.037 229.12C407.037 227.173 406.464 225.653 405.317 224.56C404.171 223.44 402.691 222.88 400.877 222.88C399.544 222.88 398.251 223.213 396.997 223.88C395.744 224.52 394.664 225.467 393.757 226.72C392.877 227.947 392.291 229.373 391.997 231C391.891 231.56 391.837 232.173 391.837 232.84C391.837 234.787 392.411 236.333 393.557 237.48C394.731 238.6 396.211 239.16 397.997 239.16C399.357 239.16 400.651 238.84 401.877 238.2C403.131 237.533 404.197 236.587 405.077 235.36C405.984 234.107 406.584 232.64 406.877 230.96ZM419.789 216.52C419.202 216.52 418.709 216.333 418.309 215.96C417.935 215.56 417.749 215.067 417.749 214.48C417.749 213.68 418.042 213 418.629 212.44C419.215 211.853 419.895 211.56 420.669 211.56C421.282 211.56 421.775 211.747 422.149 212.12C422.522 212.493 422.709 212.987 422.709 213.6C422.709 214.4 422.415 215.093 421.829 215.68C421.242 216.24 420.562 216.52 419.789 216.52ZM420.949 220.08L417.069 242H413.429L417.309 220.08H420.949ZM436.672 219.72C438.512 219.72 440.099 220.08 441.432 220.8C442.792 221.493 443.819 222.48 444.512 223.76C445.232 225.013 445.592 226.453 445.592 228.08C445.592 228.64 445.526 229.32 445.392 230.12C445.286 230.813 445.112 231.533 444.872 232.28H427.352C427.299 232.813 427.272 233.2 427.272 233.44C427.272 235.28 427.819 236.72 428.912 237.76C430.032 238.773 431.486 239.28 433.272 239.28C434.846 239.28 436.219 238.92 437.392 238.2C438.592 237.453 439.499 236.467 440.112 235.24H444.032C443.072 237.347 441.592 239.067 439.592 240.4C437.619 241.707 435.326 242.36 432.712 242.36C429.966 242.36 427.752 241.573 426.072 240C424.419 238.4 423.592 236.227 423.592 233.48C423.592 232.707 423.672 231.88 423.832 231C424.232 228.733 425.046 226.747 426.272 225.04C427.499 223.333 429.006 222.027 430.792 221.12C432.606 220.187 434.566 219.72 436.672 219.72ZM441.712 229.64C441.792 229.107 441.832 228.613 441.832 228.16C441.832 226.453 441.286 225.133 440.192 224.2C439.126 223.267 437.726 222.8 435.992 222.8C434.126 222.8 432.432 223.413 430.912 224.64C429.392 225.84 428.366 227.507 427.832 229.64H441.712ZM462.717 219.68C464.984 219.68 466.797 220.293 468.157 221.52C469.517 222.72 470.197 224.48 470.197 226.8C470.197 227.653 470.13 228.413 469.997 229.08L467.717 242H464.117L466.317 229.6C466.424 229.04 466.477 228.453 466.477 227.84C466.477 226.213 466.024 224.973 465.117 224.12C464.237 223.267 462.997 222.84 461.397 222.84C459.477 222.84 457.837 223.44 456.477 224.64C455.144 225.84 454.277 227.587 453.877 229.88V229.8L451.717 242H448.077L451.957 220.08H455.597L455.037 223.24C455.944 222.093 457.077 221.213 458.437 220.6C459.797 219.987 461.224 219.68 462.717 219.68ZM481.383 242.36C479.09 242.36 477.21 241.813 475.743 240.72C474.276 239.627 473.543 238.16 473.543 236.32C473.543 235.973 473.556 235.72 473.583 235.56H477.143C477.036 236.707 477.37 237.64 478.143 238.36C478.943 239.08 480.09 239.44 481.583 239.44C483.076 239.44 484.276 239.16 485.183 238.6C486.116 238.013 486.583 237.2 486.583 236.16C486.583 235.28 486.21 234.587 485.463 234.08C484.716 233.573 483.57 233.027 482.023 232.44C480.663 231.933 479.543 231.453 478.663 231C477.783 230.547 477.036 229.92 476.423 229.12C475.81 228.293 475.503 227.253 475.503 226C475.503 224.773 475.85 223.68 476.543 222.72C477.263 221.76 478.25 221.027 479.503 220.52C480.783 219.987 482.236 219.72 483.863 219.72C486.103 219.72 487.943 220.28 489.383 221.4C490.823 222.52 491.543 223.987 491.543 225.8C491.543 226.147 491.53 226.413 491.503 226.6H488.023L488.063 226.12C488.063 225.053 487.65 224.213 486.823 223.6C486.023 222.96 484.956 222.64 483.623 222.64C482.316 222.64 481.236 222.933 480.383 223.52C479.556 224.107 479.143 224.893 479.143 225.88C479.143 226.813 479.53 227.547 480.303 228.08C481.076 228.613 482.276 229.2 483.903 229.84C485.263 230.373 486.356 230.867 487.183 231.32C488.01 231.747 488.716 232.347 489.303 233.12C489.89 233.893 490.183 234.867 490.183 236.04C490.183 237.32 489.796 238.44 489.023 239.4C488.276 240.36 487.236 241.093 485.903 241.6C484.57 242.107 483.063 242.36 481.383 242.36Z" fill="#AFAAAA"/>
<rect x="11" y="151" width="140" height="140" rx="20" fill="#D9D9D9"/>
<path d="M135.469 152.109H83.3281C81.4422 152.109 80 153.552 80 155.438V171.412C80 173.853 81.3313 176.072 83.3281 177.181C85.4359 178.402 87.8766 178.402 89.8734 177.181C91.8703 175.961 94.2 175.406 96.5297 175.406C100.191 175.406 103.63 176.848 106.181 179.511C108.733 182.173 110.064 185.612 109.842 189.384C109.509 196.262 103.852 201.809 97.0844 202.031C94.5328 202.142 92.0922 201.477 89.8734 200.256C87.8766 199.036 85.325 199.036 83.3281 200.256C81.2203 201.477 80 203.695 80 206.025V222H96.0859C98.5266 222 100.745 223.331 101.855 225.328C103.075 227.436 103.075 229.877 101.855 231.873C100.634 234.092 99.9687 236.533 100.08 239.084C100.302 245.963 105.848 251.509 112.727 251.842C116.387 252.064 119.938 250.733 122.6 248.181C125.263 245.63 126.705 242.191 126.705 238.53C126.705 236.2 126.039 233.87 124.93 231.873C123.709 229.877 123.709 227.325 124.93 225.328C126.15 223.22 128.369 222 130.698 222H143.234V277.469C143.234 281.795 139.795 285.234 135.469 285.234H80V272.587C80 270.147 78.6687 267.928 76.6719 266.819C74.5641 265.598 72.1234 265.598 70.1266 266.819C68.1297 268.039 65.8 268.594 63.4703 268.594C59.8094 268.594 56.3703 267.152 53.8188 264.489C51.2672 261.827 49.9359 258.388 50.1578 254.616C50.4906 247.738 56.1484 242.191 62.9156 241.969C65.4672 241.858 67.9078 242.523 70.1266 243.744C72.1234 244.964 74.675 244.964 76.6719 243.744C78.7797 242.523 80 240.305 80 237.975V222L63.8031 222.111C61.4734 222.111 59.3656 220.78 58.1453 218.783C56.925 216.675 56.925 214.234 58.1453 212.238C59.3656 210.241 59.9203 207.911 59.9203 205.581C59.9203 201.92 58.4781 198.481 55.8156 195.93C53.1531 193.378 49.7141 192.047 45.9422 192.269C39.0641 192.602 33.5172 198.259 33.2953 205.027C33.1844 207.578 33.85 210.019 35.0703 212.238C36.2906 214.234 36.2906 216.786 35.0703 218.783C34.0719 220.558 32.2969 221.778 30.1891 222.111L13.4375 222C11.5516 222 10.1094 223.442 10.1094 225.328V277.469C10.1094 285.456 16.5438 291.891 24.5312 291.891H135.469C143.456 291.891 149.891 285.456 149.891 277.469V166.531C149.891 158.544 143.456 152.109 135.469 152.109Z" fill="#2F0101"/>
</svg>
