<svg width="128" height="128" viewBox="0 0 128 128" fill="none" xmlns="http://www.w3.org/2000/svg" role="img" aria-labelledby="title desc">
  <title id="title">CUBO CGPA logo</title>
  <desc id="desc">A geometric cube badge with an academic progress ring and CGPA lettering.</desc>
  <defs>
    <linearGradient id="cgpa-bg" x1="20" y1="14" x2="108" y2="116" gradientUnits="userSpaceOnUse">
      <stop stop-color="#5B7CFF"/>
      <stop offset="0.52" stop-color="#7C3AED"/>
      <stop offset="1" stop-color="#14B8A6"/>
    </linearGradient>
    <linearGradient id="cgpa-ring" x1="30" y1="24" x2="100" y2="102" gradientUnits="userSpaceOnUse">
      <stop stop-color="#FDE68A"/>
      <stop offset="1" stop-color="#34D399"/>
    </linearGradient>
    <filter id="cgpa-shadow" x="10" y="12" width="108" height="108" filterUnits="userSpaceOnUse" color-interpolation-filters="sRGB">
      <feDropShadow dx="0" dy="10" stdDeviation="8" flood-color="#1E1B4B" flood-opacity="0.22"/>
    </filter>
  </defs>
  <rect x="18" y="16" width="92" height="92" rx="24" fill="url(#cgpa-bg)" filter="url(#cgpa-shadow)"/>
  <path d="M64 30L91 45.5V76.5L64 92L37 76.5V45.5L64 30Z" fill="#FFFFFF" fill-opacity="0.16" stroke="#FFFFFF" stroke-opacity="0.55" stroke-width="3" stroke-linejoin="round"/>
  <path d="M64 30V61.5M91 45.5L64 61.5M37 45.5L64 61.5" stroke="#FFFFFF" stroke-opacity="0.45" stroke-width="3" stroke-linecap="round" stroke-linejoin="round"/>
  <circle cx="64" cy="64" r="30" stroke="#FFFFFF" stroke-opacity="0.24" stroke-width="8"/>
  <path d="M64 34A30 30 0 1 1 39.7 81.6" stroke="url(#cgpa-ring)" stroke-width="8" stroke-linecap="round"/>
  <rect x="42" y="53" width="44" height="28" rx="8" fill="#0F172A" fill-opacity="0.72"/>
  <path d="M50 69.5L57.5 61.5L64 67.5L74 56L82 65" stroke="#FDE68A" stroke-width="4" stroke-linecap="round" stroke-linejoin="round"/>
  <text x="64" y="103" text-anchor="middle" font-family="Arial, Helvetica, sans-serif" font-size="15" font-weight="800" letter-spacing="1.2" fill="#FFFFFF">CGPA</text>
</svg>
