<svg xmlns="http://www.w3.org/2000/svg" viewBox="0 0 128 128" width="100%" height="100%">
  <g stroke="#111111" stroke-width="6" stroke-linecap="round" stroke-linejoin="round">
    
    <path d="M 24 55 L 64 75 L 64 112 L 24 92 Z" fill="#2563EB" />
    
    <path d="M 64 75 L 104 55 L 104 92 L 64 112 Z" fill="#1D4ED8" />
    
    <line x1="64" y1="75" x2="64" y2="112" />

    <path d="M 64 16 C 36 16, 20 26, 20 38 C 20 46, 30 53, 44 57 L 40 68 L 56 60 C 59 60, 61 60, 64 60 C 92 60, 108 50, 108 38 C 108 26, 92 16, 64 16 Z" fill="#FFFFFF" />
    
    <line x1="44" y1="32" x2="84" y2="32" stroke-width="5" />
    <line x1="40" y1="42" x2="88" y2="42" stroke-width="5" />

  </g>
</svg>
